<svg width="12" height="12" viewBox="0 0 12 12" fill="none" xmlns="http://www.w3.org/2000/svg">
<path d="M11.2513 7.97637C10.8961 7.8756 10.5672 7.69882 10.2877 7.45838C10.0083 7.21794 9.78485 6.91964 9.63313 6.58431L9.76718 6.5271C10.6193 6.21246 10.8204 5.72619 10.8683 5.45922C10.9014 5.27954 10.8821 5.09416 10.8125 4.92512C10.7429 4.75609 10.626 4.61053 10.4757 4.50575C10.3422 4.40044 10.1881 4.324 10.0232 4.28132C9.85835 4.23863 9.68637 4.23064 9.51824 4.25785C9.61947 3.68056 9.58576 3.08781 9.41971 2.5256C9.25366 1.96339 8.95973 1.44684 8.56076 1.01606C8.01444 0.50396 7.32654 0.166659 6.58583 0.0476902C5.84513 -0.0712786 5.08561 0.0335456 4.40532 0.348634C2.49036 1.3021 2.38504 3.04695 2.49036 4.27692C2.22218 4.22389 1.9438 4.26784 1.70523 4.40087C1.56387 4.47586 1.44135 4.58171 1.34684 4.71049C1.25234 4.83928 1.18828 4.98767 1.15947 5.14457C0.996702 6.09804 1.82013 6.36501 2.2127 6.51757L2.38504 6.57477C2.24462 6.89889 2.03338 7.18774 1.76671 7.4203C1.50005 7.65287 1.18466 7.82329 0.843506 7.91916C0.678313 7.95429 0.52303 8.02555 0.388897 8.12779C0.254763 8.23003 0.145136 8.36069 0.0679504 8.51031C-0.0226501 8.73685 -0.0226501 8.98934 0.0679504 9.21588C0.221217 9.483 0.437111 9.70923 0.697205 9.87526C0.9573 10.0413 1.25387 10.1422 1.56161 10.1693C1.68608 10.7033 1.92545 11.1228 2.82548 10.9321C3.0724 10.8874 3.32539 10.8874 3.57231 10.9321C3.72528 11.0052 3.86976 11.0947 4.00318 11.1991C4.57728 11.6676 5.28308 11.9474 6.02345 12C6.73586 11.988 7.41837 11.7127 7.9384 11.2277C8.09621 11.0689 8.29693 10.9591 8.51619 10.9117C8.73545 10.8643 8.96382 10.8813 9.17354 10.9607C9.43868 11.0215 9.71717 10.9768 9.94967 10.8361C10.1822 10.6954 10.3503 10.4698 10.4183 10.2075C11.8449 9.89284 11.9981 9.19681 11.9981 8.90123C12.0126 8.68193 11.9439 8.46521 11.8056 8.29394C11.6673 8.12267 11.4695 8.00934 11.2513 7.97637ZM3.47656 6.96569C3.54748 6.83532 3.59009 6.69155 3.60163 6.54373C3.61318 6.3959 3.5934 6.2473 3.54359 6.10757C3.46454 5.92582 3.33498 5.77033 3.17017 5.65945C3.23998 5.64132 3.30521 5.60884 3.36167 5.5641C3.69678 5.33527 3.66806 4.86807 3.64891 4.26738C3.60104 3.31392 3.55316 2.10301 4.89363 1.47372C5.34929 1.27551 5.85269 1.21236 6.34348 1.29184C6.83427 1.37132 7.29163 1.59007 7.66073 1.92185C7.94771 2.25469 8.15396 2.6488 8.26354 3.07371C8.37312 3.49861 8.38308 3.94291 8.29267 4.37226C8.29267 4.91574 8.22564 5.39247 8.60863 5.57363C8.66668 5.60981 8.7321 5.63261 8.80013 5.64038C8.61792 5.74757 8.4765 5.91186 8.39799 6.10757C8.35141 6.30295 8.34695 6.50595 8.38491 6.70317C8.42287 6.90039 8.50238 7.08735 8.61821 7.25173C8.97114 7.95257 9.52849 8.53085 10.2172 8.91077H10.1023C9.91619 8.90225 9.73312 8.95992 9.58578 9.07345C9.43844 9.18698 9.33644 9.34899 9.29802 9.53052C9.30032 9.56862 9.30032 9.60683 9.29802 9.64494C8.90331 9.56728 8.49596 9.58106 8.10746 9.68522C7.71896 9.78938 7.35972 9.98112 7.05752 10.2456C6.43516 10.6842 5.99473 10.9989 4.75958 10.1217C4.39824 9.79681 3.93424 9.60794 3.44784 9.58773C3.20096 9.59518 2.95476 9.61747 2.71058 9.65447C2.6897 9.52889 2.65102 9.4069 2.59569 9.29215C2.51426 9.17193 2.40448 9.07343 2.27594 9.00527C2.14741 8.93712 2.00405 8.90139 1.85843 8.90123H1.72438C2.13158 8.71169 2.49646 8.44273 2.79743 8.11027C3.09839 7.77781 3.32933 7.38861 3.47656 6.96569Z" fill="#555555"/>
</svg>
