<svg width="12" height="10" viewBox="0 0 12 10" fill="none" xmlns="http://www.w3.org/2000/svg">
<path d="M11.6699 0.175312C11.1855 0.474601 10.656 0.686136 10.1039 0.80099C9.63468 0.287801 8.98386 -0.00180874 8.30391 7.32442e-05C6.96447 -0.0104121 5.86692 1.10619 5.84392 2.50284C5.84449 2.69674 5.86661 2.88994 5.90992 3.07851C3.93725 2.9814 2.09487 2.02304 0.833918 0.438091C0.618233 0.817122 0.50232 1.24879 0.497937 1.6895C0.497989 2.53924 0.911467 3.33086 1.59596 3.79184C1.20506 3.77856 0.822677 3.66924 0.479942 3.47271C0.479942 3.47271 0.479942 3.47271 0.479942 3.504C0.476023 4.72444 1.30484 5.77534 2.45395 6.00677C2.09173 6.10748 1.71244 6.12243 1.34397 6.05059C1.67526 7.08439 2.59683 7.78696 3.64195 7.80256C2.77189 8.50814 1.70212 8.89319 0.599979 8.89755C0.399453 8.89733 0.199082 8.8848 0 8.86001C1.12911 9.60485 2.43792 9.9998 3.774 9.99877C7.5841 10.0714 10.7292 6.90915 10.7989 2.93586C10.7996 2.89375 10.8 2.85165 10.8 2.8095C10.8 2.70104 10.8 2.59258 10.8 2.48413C11.2702 2.12472 11.6764 1.68213 12 1.17642C11.5496 1.38209 11.0724 1.517 10.584 1.57685C11.0976 1.26331 11.4838 0.76491 11.6699 0.175312Z" fill="#555555"/>
</svg>
