<svg width="11" height="12" viewBox="0 0 11 12" fill="none" xmlns="http://www.w3.org/2000/svg">
<path d="M3.98864 11.9999C2.93078 11.9999 1.91626 11.5965 1.16824 10.8784C0.42023 10.1603 0 9.18633 0 8.17079C0 7.15525 0.42023 6.1813 1.16824 5.46321C1.91626 4.74512 2.93078 4.3417 3.98864 4.3417H4.9625V6.21042H3.98864C3.58408 6.21042 3.18862 6.32559 2.85224 6.54136C2.51587 6.75712 2.2537 7.0638 2.09888 7.42261C1.94407 7.78142 1.90356 8.17624 1.98248 8.55715C2.06141 8.93805 2.25622 9.28794 2.54228 9.56256C2.82834 9.83718 3.19281 10.0242 3.58959 10.1C3.98637 10.1757 4.39764 10.1368 4.7714 9.98822C5.14516 9.8396 5.46461 9.58792 5.68937 9.265C5.91413 8.94208 6.03409 8.56243 6.03409 8.17406V-0.00012207H7.98068V0.933696C7.98068 1.45448 8.19619 1.95394 8.57978 2.3222C8.96338 2.69045 9.48365 2.89733 10.0261 2.89733H11V4.76279H10.0193C9.2984 4.76378 8.59097 4.57514 7.97386 4.21733V8.17079C7.97296 9.18549 7.55291 10.1584 6.80583 10.8763C6.05875 11.5941 5.04562 11.9981 3.98864 11.9999Z" fill="#555555"/>
</svg>
