<svg width="10" height="12" viewBox="0 0 10 12" fill="none" xmlns="http://www.w3.org/2000/svg">
<path d="M4.85174 0.00102367L4.05012 0.0967375C3.54638 0.187208 3.05766 0.342139 2.59725 0.557316C1.54645 1.08534 0.72066 1.94599 0.261322 2.9918C0.199431 3.1879 0.151318 3.38771 0.117305 3.58993C-0.233697 4.78091 0.219398 6.05541 1.25707 6.79604C1.41362 6.88574 1.77684 7.05326 1.88329 6.83192C1.93232 6.69621 1.96596 6.55583 1.9835 6.41318C2.04389 6.29341 2.07795 6.16315 2.08371 6.03038C2.04615 5.83299 1.82695 5.71337 1.73303 5.55186C1.57863 5.22632 1.48127 4.87873 1.44494 4.52301V4.34953C1.49144 2.88102 2.56969 1.62749 4.0689 1.29897C4.53787 1.17791 5.02676 1.14337 5.50929 1.19729L6.20441 1.31095C6.99887 1.50906 7.65578 2.0418 7.98923 2.75848C8.20779 3.3726 8.25106 4.03123 8.11447 4.66658C8.04558 4.94175 8.05812 5.18098 7.97045 5.43224C7.65104 6.35936 7.18137 7.2267 6.12303 7.454C5.54739 7.59768 4.94958 7.3109 4.72651 6.78406C4.64712 6.62394 4.61882 6.44505 4.64508 6.26966C4.82672 5.51598 5.09597 4.84603 5.27131 4.0924C5.48733 3.53472 5.18918 2.91536 4.60531 2.70897C4.57517 2.69833 4.54455 2.68888 4.51355 2.68075C3.78711 2.51328 3.22972 3.15927 3.03559 3.57801C2.85412 4.02136 2.81063 4.50533 2.91036 4.97172C3.01606 5.17409 3.09194 5.38948 3.1358 5.61175C2.99803 6.20988 2.83523 6.80806 2.66613 7.4062C2.49704 8.00433 2.39058 8.60252 2.21524 9.20065C2.13382 9.46384 2.14011 9.74497 2.07123 10.0201V10.4209C2.02785 10.7379 2.0427 11.0598 2.11509 11.3719C2.15265 11.5335 2.11509 11.7309 2.17773 11.8505C2.17499 11.9035 2.19038 11.956 2.22159 12C2.47836 12 2.84782 11.348 2.96057 11.1626C3.20453 10.792 3.4141 10.4017 3.5868 9.99618C3.7559 9.61934 3.78092 9.20065 3.91245 8.79986C4.04501 8.46969 4.13951 8.12673 4.19424 7.77703C4.27551 7.94681 4.41156 8.0873 4.58254 8.17777C5.18375 8.58386 5.93618 8.72933 6.6554 8.57851C7.52989 8.41634 8.31559 7.96264 8.87233 7.29846C9.25078 6.80663 9.54269 6.25907 9.73654 5.67744C9.843 5.37837 9.86178 5.04337 9.94321 4.72637C10.0781 3.95048 9.97141 3.15387 9.63634 2.43546C8.91609 0.874323 7.35046 -0.0348562 4.85174 0.00102367Z" fill="#555555"/>
</svg>
